# xmcd CD database file
#
# Track frame offsets:
#	150
#	23544
#	50915
#	73725
#	97180
#	122466
#	148279
#	167531
#	184722
#	206953
#	226600
#	238548
#	258735
#	281189
#
# Disc length: 4045 seconds
#
# Revision: 1
# Processed by: cddbd v1.5.2PL0 Copyright (c) Steve Scherf et al.
# Submitted via: CDex 1.51
#
DISCID=d30fcb0e
DTITLE=ROD MASON and HIS HOT FIVE - ROD MASON and HIS HOT FIVE Live
DYEAR=2006
DGENRE=Jazz
TTITLE0=PANAMA RAG
TTITLE1=HIGHER GROUND
TTITLE2=YELLOW DOG BLUES
TTITLE3=HALLE HALLELUJA
TTITLE4=POOR PAPA
TTITLE5=CHICAGO BREAKDOWN
TTITLE6=THAT'S MY HOME
TTITLE7=GEORGIA SWING
TTITLE8=JUST A LITTLE WHILE
TTITLE9=BYE BYE BLUES
TTITLE10=BLUEBERRY HILL
TTITLE11=WAY DOWN YONDER IN NEWORLEANS
TTITLE12=SOUTH
TTITLE13=HE'S A SON OF THE SOUTH
EXTD=YEAR: 2006
EXTT0=
EXTT1=
EXTT2=
EXTT3=
EXTT4=
EXTT5=
EXTT6=
EXTT7=
EXTT8=
EXTT9=
EXTT10=
EXTT11=
EXTT12=
EXTT13=
PLAYORDER=
